<svg xmlns="http://www.w3.org/2000/svg" xmlns:xlink="http://www.w3.org/1999/xlink" width="500" zoomAndPan="magnify" viewBox="0 0 375 374.999991" height="500" preserveAspectRatio="xMidYMid meet" version="1.0"><defs><g/><clipPath id="0bc5f72e7b"><path d="M 1 15.234375 L 375 15.234375 L 375 359.484375 L 1 359.484375 Z M 1 15.234375 " clip-rule="nonzero"/></clipPath></defs><g clip-path="url(#0bc5f72e7b)"><path fill="#ffffff" d="M 361.722656 153.523438 C 370.089844 145.164062 374.699219 134.050781 374.699219 122.230469 C 374.699219 110.410156 370.089844 99.292969 361.71875 90.929688 C 353.351562 82.578125 342.234375 77.980469 330.414062 77.980469 C 318.585938 77.980469 307.46875 82.582031 299.097656 90.941406 L 284.796875 105.230469 C 283.015625 101.644531 281.085938 98.128906 279.019531 94.707031 C 271.347656 81.996094 262.230469 71.074219 252.046875 62.3125 C 252.488281 60.109375 252.707031 57.863281 252.707031 55.589844 C 252.707031 33.34375 234.59375 15.242188 212.332031 15.242188 L 170.203125 15.242188 C 147.941406 15.242188 129.828125 33.34375 129.828125 55.589844 C 129.828125 57.863281 130.050781 60.109375 130.488281 62.308594 C 120.261719 71.113281 111.109375 82.085938 103.417969 94.867188 C 90.230469 116.78125 82.664062 142.558594 82.664062 165.585938 C 82.664062 170.359375 82.980469 174.988281 83.589844 179.46875 C 81.609375 179.136719 79.375 178.648438 77.015625 178.132812 C 73.582031 177.378906 69.691406 176.523438 65.476562 175.90625 L 65.035156 175.832031 C 63.417969 175.5625 60.707031 175.105469 57.273438 175.105469 C 56.359375 175.105469 55.441406 175.140625 54.542969 175.203125 C 36.316406 176.519531 20.714844 190.320312 17.445312 208.015625 C 15.8125 216.863281 13.9375 225.972656 12.125 234.785156 C 11.375 238.417969 10.628906 242.050781 9.894531 245.683594 L 8.277344 253.671875 C 6.21875 263.839844 4.15625 274.011719 2.109375 284.183594 C 0.226562 293.558594 1.140625 302.324219 4.828125 310.234375 C 10.363281 322.105469 20.789062 330.234375 34.191406 333.125 C 45.742188 335.609375 56.199219 337.722656 66.160156 339.585938 C 68.964844 340.109375 71.789062 340.375 74.558594 340.375 C 83.285156 340.375 91.308594 337.832031 97.921875 333.242188 C 101.351562 334.636719 104.507812 335.929688 107.554688 337.183594 C 111.519531 338.816406 115.394531 340.285156 119.140625 341.707031 C 120.828125 342.34375 122.511719 342.980469 124.195312 343.632812 C 130.863281 346.210938 137.527344 348.792969 144.191406 351.378906 L 145.210938 351.773438 C 149.226562 353.339844 153.765625 355.105469 158.972656 356.507812 C 159.109375 356.554688 159.25 356.605469 159.390625 356.652344 C 161.488281 357.390625 165.394531 358.761719 170.351562 359.238281 C 171.980469 359.394531 173.65625 359.472656 175.332031 359.472656 C 180.578125 359.472656 185.132812 358.714844 188.980469 358.007812 C 197.332031 356.46875 205.921875 354.328125 215.234375 351.46875 L 218.039062 350.609375 C 228.320312 347.457031 238.953125 344.195312 249.582031 340.320312 C 253.421875 338.921875 257.257812 337.578125 261.324219 336.160156 C 268.3125 333.71875 275.539062 331.195312 282.808594 328.335938 C 288.449219 326.117188 293.503906 324.257812 298.261719 322.644531 C 308.703125 319.113281 317.566406 311.824219 323.21875 302.132812 C 329.257812 291.777344 330.988281 279.839844 328.09375 268.515625 C 324.816406 255.707031 316.960938 245.308594 305.371094 238.441406 C 300.15625 235.351562 294.496094 233.238281 288.667969 232.179688 C 286.761719 230.695312 284.738281 229.363281 282.617188 228.171875 C 288.171875 225.5 293.296875 221.894531 297.78125 217.414062 Z M 361.722656 153.523438 " fill-opacity="1" fill-rule="nonzero"/></g><path fill="#66142e" d="M 38.59375 251.484375 C 41.167969 238.773438 43.882812 226.085938 46.238281 213.332031 C 47.15625 208.371094 52.347656 204.695312 56.652344 204.386719 C 58.222656 204.273438 59.6875 204.625 61.207031 204.847656 C 67.765625 205.8125 74.132812 207.710938 80.699219 208.628906 C 84.957031 209.226562 89.160156 210.308594 93.304688 211.359375 C 99.15625 212.847656 103.054688 219.402344 101.558594 224.660156 C 101.046875 226.457031 100.785156 228.332031 100.398438 230.164062 C 100.207031 231.09375 100.515625 231.480469 101.515625 231.445312 C 108.128906 231.226562 114.746094 230.945312 121.363281 230.878906 C 125.605469 230.835938 129.859375 231.074219 134.101562 231.292969 C 135.703125 231.375 137.21875 232.03125 138.6875 232.644531 C 149.746094 237.242188 160.511719 242.480469 171.320312 247.625 C 176.148438 249.925781 180.976562 252.226562 185.777344 254.585938 C 187.125 255.25 188.398438 255.207031 189.777344 254.78125 C 199.691406 251.710938 209.59375 248.601562 219.542969 245.640625 C 226.84375 243.46875 233.601562 244.609375 239.652344 249.421875 C 240.957031 250.460938 242.261719 251.445312 243.121094 252.914062 C 243.574219 253.6875 244.273438 253.792969 245.132812 253.644531 C 247.429688 253.242188 249.601562 252.410156 251.835938 251.789062 C 254.796875 250.964844 257.816406 250.585938 260.832031 251.121094 C 266.464844 252.125 271.277344 254.640625 274.617188 259.457031 C 275.382812 260.554688 276.269531 260.949219 277.550781 260.792969 C 282.167969 260.230469 286.550781 261.300781 290.4375 263.605469 C 295.066406 266.347656 298.332031 270.316406 299.722656 275.761719 C 301.785156 283.816406 296.472656 292.363281 288.871094 294.9375 C 283.222656 296.847656 277.632812 298.933594 272.085938 301.113281 C 261.351562 305.335938 250.378906 308.886719 239.546875 312.835938 C 228.710938 316.785156 217.660156 320.117188 206.632812 323.503906 C 199.070312 325.828125 191.445312 327.804688 183.675781 329.234375 C 180.214844 329.875 176.722656 330.460938 173.160156 330.117188 C 170.925781 329.90625 168.9375 328.882812 166.808594 328.320312 C 162.703125 327.234375 158.757812 325.648438 154.800781 324.109375 C 148.121094 321.519531 141.441406 318.933594 134.757812 316.347656 C 129.410156 314.28125 124.019531 312.324219 118.71875 310.140625 C 110.96875 306.949219 103.199219 303.796875 95.425781 300.660156 C 93.027344 299.695312 90.632812 298.6875 88.246094 297.6875 C 87.203125 297.253906 86.753906 297.570312 86.550781 298.660156 C 86.253906 300.285156 86.003906 301.953125 85.433594 303.488281 C 83.273438 309.273438 78.203125 312.074219 71.542969 310.828125 C 61.121094 308.878906 50.726562 306.753906 40.359375 304.527344 C 36.476562 303.6875 33.179688 301.761719 31.375 297.886719 C 30.15625 295.273438 30.277344 292.632812 30.820312 289.949219 C 33.398438 277.125 35.996094 264.304688 38.59375 251.484375 M 199.460938 260.894531 C 199.441406 261.042969 199.421875 261.1875 199.402344 261.332031 C 201.75 262.507812 204.136719 263.617188 206.441406 264.871094 C 211.496094 267.617188 215.984375 271 219.074219 276.015625 C 220.675781 278.613281 221.296875 281.449219 221.300781 284.375 C 221.308594 292.414062 215.234375 298.851562 207.835938 301.128906 C 203.28125 302.535156 198.757812 302.613281 194.011719 301.257812 C 187.171875 299.300781 180.40625 297.121094 173.628906 294.980469 C 166.6875 292.789062 159.792969 290.464844 152.839844 288.296875 C 150.605469 287.601562 148.265625 287.015625 146.214844 285.765625 C 143.375 284.03125 143.261719 280.992188 145.878906 278.996094 C 147.449219 277.792969 149.109375 277.9375 150.757812 278.5 C 154.9375 279.917969 159.195312 281.109375 163.347656 282.582031 C 169.167969 284.652344 175.160156 286.160156 180.960938 288.289062 C 185.828125 290.082031 190.867188 291.339844 195.835938 292.820312 C 198.742188 293.6875 201.523438 294.046875 204.425781 293.09375 C 208.375 291.800781 211 289.265625 211.632812 285.074219 C 212.214844 281.183594 210.375 278.34375 207.445312 275.941406 C 203.558594 272.742188 198.964844 270.785156 194.550781 268.566406 C 184.160156 263.332031 173.648438 258.332031 163.167969 253.285156 C 157.15625 250.386719 151.128906 247.523438 145.054688 244.757812 C 141.394531 243.085938 137.636719 241.621094 133.917969 240.082031 C 132.9375 239.675781 131.890625 239.589844 130.832031 239.539062 C 126.863281 239.347656 122.894531 239.625 118.921875 239.601562 C 112.859375 239.558594 106.792969 240.082031 100.726562 240.109375 C 98.761719 240.121094 98.199219 240.808594 97.855469 242.546875 C 94.964844 257.164062 92.027344 271.773438 89.019531 286.367188 C 88.679688 288.007812 89.113281 288.804688 90.59375 289.390625 C 96.339844 291.664062 102.09375 293.910156 107.777344 296.328125 C 115.890625 299.777344 124.121094 302.949219 132.316406 306.195312 C 141.847656 309.972656 151.367188 313.789062 161.027344 317.234375 C 164.96875 318.644531 168.964844 319.890625 172.890625 321.34375 C 173.566406 321.59375 174.285156 321.660156 175.011719 321.625 C 178.328125 321.46875 181.632812 321.121094 184.84375 320.285156 C 194.9375 317.65625 205.027344 315.058594 214.941406 311.753906 C 227.816406 307.457031 240.714844 303.226562 253.457031 298.546875 C 260.085938 296.113281 266.746094 293.765625 273.382812 291.355469 C 277.273438 289.941406 281.179688 288.566406 285.015625 287.011719 C 289.585938 285.152344 291.507812 280.605469 290.183594 276.238281 C 288.441406 270.503906 281.449219 268.117188 276.023438 269.902344 C 273.460938 270.746094 270.859375 271.476562 268.269531 272.226562 C 260.214844 274.554688 252.164062 276.878906 244.101562 279.175781 C 241.03125 280.054688 238.050781 281.320312 234.847656 281.667969 C 232.359375 281.941406 230.148438 280.324219 229.757812 278.171875 C 229.367188 276.011719 230.582031 274.207031 233.171875 273.4375 C 243.746094 270.285156 254.335938 267.183594 264.917969 264.058594 C 265.382812 263.921875 266.035156 263.941406 266.160156 263.398438 C 266.308594 262.773438 265.714844 262.40625 265.273438 262.121094 C 262.167969 260.109375 258.851562 258.902344 255.101562 259.878906 C 253.453125 260.308594 251.871094 261.007812 250.222656 261.441406 C 243.660156 263.171875 237.210938 265.289062 230.683594 267.132812 C 228.625 267.710938 226.566406 268.449219 224.398438 268.558594 C 222.066406 268.679688 220.109375 267.132812 219.582031 264.847656 C 219.183594 263.125 220.214844 261.488281 222.359375 260.503906 C 222.808594 260.296875 223.292969 260.164062 223.765625 260.019531 C 226.988281 259.039062 230.207031 258.054688 233.433594 257.101562 C 234.34375 256.832031 234.558594 256.546875 233.734375 255.839844 C 231.242188 253.699219 228.382812 252.726562 225.148438 253.34375 C 221.570312 254.023438 218.144531 255.289062 214.667969 256.347656 C 209.605469 257.894531 204.53125 259.382812 199.460938 260.894531 " fill-opacity="1" fill-rule="nonzero"/><path fill="#75be83" d="M 58.890625 297.1875 C 53.679688 296.136719 48.375 295.027344 42.667969 293.800781 C 41.886719 293.628906 41.523438 293.445312 41.40625 293.371094 C 41.410156 293.179688 41.445312 292.796875 41.582031 292.113281 C 43.628906 281.933594 45.6875 271.761719 47.75 261.589844 L 49.355469 253.660156 C 50.082031 250.070312 50.820312 246.484375 51.558594 242.898438 C 53.382812 234.027344 55.269531 224.859375 56.960938 215.75 C 57.101562 215.609375 57.320312 215.457031 57.507812 215.367188 C 57.761719 215.402344 58.105469 215.460938 58.382812 215.507812 C 58.789062 215.574219 59.199219 215.640625 59.609375 215.703125 C 60.894531 215.890625 62.257812 216.136719 63.90625 216.46875 C 65.398438 216.769531 66.886719 217.097656 68.375 217.421875 C 69.984375 217.773438 71.59375 218.128906 73.207031 218.453125 C 75.449219 218.90625 77.34375 219.238281 79.171875 219.496094 C 80.230469 219.640625 81.339844 219.835938 82.566406 220.082031 C 85.054688 220.585938 87.570312 221.226562 90.230469 221.898438 L 90.515625 221.972656 C 90.609375 222.039062 90.730469 222.179688 90.816406 222.316406 C 90.4375 223.765625 87.574219 237.933594 87.082031 240.421875 C 84.019531 255.914062 81.136719 270.21875 78.261719 284.152344 C 77.78125 286.496094 76.21875 294.113281 75.75 296.691406 L 75.617188 297.417969 C 75.472656 298.242188 75.289062 299.265625 75.140625 299.65625 C 75.054688 299.890625 74.976562 300.042969 74.921875 300.125 C 74.710938 300.160156 74.257812 300.175781 73.558594 300.046875 C 68.851562 299.164062 63.914062 298.203125 58.890625 297.1875 Z M 58.890625 297.1875 " fill-opacity="1" fill-rule="nonzero"/><path fill="#fce6e5" d="M 199.460938 260.894531 C 199.441406 261.042969 199.421875 261.1875 199.402344 261.332031 C 201.75 262.507812 204.136719 263.617188 206.441406 264.871094 C 211.496094 267.617188 215.984375 271 219.074219 276.015625 C 220.675781 278.613281 221.296875 281.449219 221.300781 284.375 C 221.308594 292.414062 215.234375 298.851562 207.835938 301.128906 C 203.28125 302.535156 198.757812 302.613281 194.011719 301.257812 C 187.171875 299.300781 180.40625 297.121094 173.628906 294.980469 C 166.6875 292.789062 159.792969 290.464844 152.839844 288.296875 C 150.605469 287.601562 148.265625 287.015625 146.214844 285.765625 C 143.375 284.03125 143.261719 280.992188 145.878906 278.996094 C 147.449219 277.792969 149.109375 277.9375 150.757812 278.5 C 154.9375 279.917969 159.195312 281.109375 163.347656 282.582031 C 169.167969 284.652344 175.160156 286.160156 180.960938 288.289062 C 185.828125 290.082031 190.867188 291.339844 195.835938 292.820312 C 198.742188 293.6875 201.523438 294.046875 204.425781 293.09375 C 208.375 291.800781 211 289.265625 211.632812 285.074219 C 212.214844 281.183594 210.375 278.34375 207.445312 275.941406 C 203.558594 272.742188 198.964844 270.785156 194.550781 268.566406 C 184.160156 263.332031 173.648438 258.332031 163.167969 253.285156 C 157.15625 250.386719 151.128906 247.523438 145.054688 244.757812 C 141.394531 243.085938 137.636719 241.621094 133.917969 240.082031 C 132.9375 239.675781 131.890625 239.589844 130.832031 239.539062 C 126.863281 239.347656 122.894531 239.625 118.921875 239.601562 C 112.859375 239.558594 106.792969 240.082031 100.726562 240.109375 C 98.761719 240.121094 98.199219 240.808594 97.855469 242.546875 C 94.964844 257.164062 92.027344 271.773438 89.019531 286.367188 C 88.679688 288.007812 89.113281 288.804688 90.59375 289.390625 C 96.339844 291.664062 102.09375 293.910156 107.777344 296.328125 C 115.890625 299.777344 124.121094 302.949219 132.316406 306.195312 C 141.847656 309.972656 151.367188 313.789062 161.027344 317.234375 C 164.96875 318.644531 168.964844 319.890625 172.890625 321.34375 C 173.566406 321.59375 174.285156 321.660156 175.011719 321.625 C 178.328125 321.46875 181.632812 321.121094 184.84375 320.285156 C 194.9375 317.65625 205.027344 315.058594 214.941406 311.753906 C 227.816406 307.457031 240.714844 303.226562 253.457031 298.546875 C 260.085938 296.113281 266.746094 293.765625 273.382812 291.355469 C 277.273438 289.941406 281.179688 288.566406 285.015625 287.011719 C 289.585938 285.152344 291.507812 280.605469 290.183594 276.238281 C 288.441406 270.503906 281.449219 268.117188 276.023438 269.902344 C 273.460938 270.746094 270.859375 271.476562 268.269531 272.226562 C 260.214844 274.554688 252.164062 276.878906 244.101562 279.175781 C 241.03125 280.054688 238.050781 281.320312 234.847656 281.667969 C 232.359375 281.941406 230.148438 280.324219 229.757812 278.171875 C 229.367188 276.011719 230.582031 274.207031 233.171875 273.4375 C 243.746094 270.285156 254.335938 267.183594 264.917969 264.058594 C 265.382812 263.921875 266.035156 263.941406 266.160156 263.398438 C 266.308594 262.773438 265.714844 262.40625 265.273438 262.121094 C 262.167969 260.109375 258.851562 258.902344 255.101562 259.878906 C 253.453125 260.308594 251.871094 261.007812 250.222656 261.441406 C 243.660156 263.171875 237.210938 265.289062 230.683594 267.132812 C 228.625 267.710938 226.566406 268.449219 224.398438 268.558594 C 222.066406 268.679688 220.109375 267.132812 219.582031 264.847656 C 219.183594 263.125 220.214844 261.488281 222.359375 260.503906 C 222.808594 260.296875 223.292969 260.164062 223.765625 260.019531 C 226.988281 259.039062 230.207031 258.054688 233.433594 257.101562 C 234.34375 256.832031 234.558594 256.546875 233.734375 255.839844 C 231.242188 253.699219 228.382812 252.726562 225.148438 253.34375 C 221.570312 254.023438 218.144531 255.289062 214.667969 256.347656 C 209.605469 257.894531 204.53125 259.382812 199.460938 260.894531 " fill-opacity="1" fill-rule="nonzero"/><path fill="#40ae62" d="M 194.191406 149.761719 L 194.320312 161.839844 C 196.449219 161.335938 198.003906 160.53125 198.984375 159.425781 C 199.964844 158.320312 200.449219 157.089844 200.433594 155.730469 C 200.421875 154.550781 199.988281 153.464844 199.136719 152.480469 C 198.289062 151.496094 196.640625 150.589844 194.191406 149.761719 " fill-opacity="1" fill-rule="nonzero"/><path fill="#40ae62" d="M 209.550781 76.105469 L 218.304688 55.589844 C 218.304688 52.289062 215.628906 49.617188 212.332031 49.617188 L 170.203125 49.617188 C 166.90625 49.617188 164.230469 52.289062 164.230469 55.589844 L 172.746094 76.195312 C 140.730469 88.601562 117.066406 131.03125 117.066406 165.585938 C 117.066406 206.53125 150.285156 220.914062 191.265625 220.914062 C 232.246094 220.914062 265.464844 206.53125 265.464844 165.585938 C 265.464844 130.945312 241.6875 88.390625 209.550781 76.105469 M 212.863281 161.179688 C 211.667969 163.476562 210.132812 165.402344 208.257812 166.953125 C 206.375 168.503906 204.371094 169.636719 202.246094 170.351562 C 200.121094 171.0625 197.515625 171.5 194.425781 171.660156 L 194.503906 178.769531 L 189.003906 178.828125 L 188.929688 171.71875 C 185.234375 171.429688 182.234375 170.867188 179.929688 170.027344 C 177.621094 169.1875 175.625 168.011719 173.941406 166.496094 C 172.253906 164.984375 170.949219 163.351562 170.027344 161.589844 C 169.105469 159.832031 168.40625 157.699219 167.925781 155.195312 L 183.117188 153.265625 C 183.597656 155.746094 184.226562 157.53125 185.003906 158.628906 C 185.78125 159.722656 187.054688 160.6875 188.820312 161.523438 L 188.675781 148.226562 C 183.59375 146.875 179.980469 145.695312 177.847656 144.6875 C 175.714844 143.683594 173.859375 142.050781 172.277344 139.796875 C 170.699219 137.542969 169.890625 134.78125 169.855469 131.519531 C 169.808594 127.050781 171.332031 123.300781 174.425781 120.269531 C 177.515625 117.234375 182.152344 115.523438 188.320312 115.128906 L 188.28125 111.40625 L 193.78125 111.347656 L 193.820312 115.070312 C 199.445312 115.363281 203.761719 116.644531 206.757812 118.921875 C 209.761719 121.199219 211.730469 124.335938 212.679688 128.339844 L 198.695312 130.710938 C 197.972656 128.9375 197.324219 127.710938 196.753906 127.027344 C 196.183594 126.34375 195.238281 125.65625 193.925781 124.96875 L 194.042969 135.851562 C 201.695312 137.804688 206.8125 139.898438 209.402344 142.125 C 212.820312 145.128906 214.554688 148.964844 214.605469 153.632812 C 214.636719 156.363281 214.054688 158.882812 212.863281 161.179688 " fill-opacity="1" fill-rule="nonzero"/><path fill="#40ae62" d="M 183.996094 126.472656 C 183.378906 127.261719 183.074219 128.183594 183.085938 129.242188 C 183.097656 130.351562 183.425781 131.3125 184.070312 132.125 C 184.71875 132.9375 185.835938 133.609375 187.429688 134.148438 L 187.328125 124.472656 C 185.726562 125.015625 184.617188 125.683594 183.996094 126.472656 " fill-opacity="1" fill-rule="nonzero"/><path fill="#66142e" d="M 191.265625 226.035156 C 140.117188 226.035156 111.945312 204.566406 111.945312 165.585938 C 111.945312 147.71875 117.984375 127.4375 128.507812 109.945312 C 138.582031 93.210938 151.78125 80.457031 166.09375 73.515625 L 159.496094 57.542969 C 159.238281 56.921875 159.109375 56.257812 159.109375 55.589844 C 159.109375 49.472656 164.085938 44.5 170.203125 44.5 L 212.332031 44.5 C 218.449219 44.5 223.429688 49.472656 223.429688 55.589844 C 223.429688 56.277344 223.289062 56.960938 223.019531 57.59375 L 216.261719 73.429688 C 230.605469 80.335938 243.839844 93.070312 253.949219 109.816406 C 264.527344 127.339844 270.59375 147.667969 270.59375 165.585938 C 270.589844 204.566406 242.417969 226.035156 191.265625 226.035156 Z M 169.550781 55.046875 L 177.480469 74.242188 C 178.007812 75.515625 177.996094 76.945312 177.453125 78.210938 C 176.914062 79.476562 175.882812 80.472656 174.597656 80.96875 C 143.25 93.113281 122.191406 134.527344 122.191406 165.585938 C 122.191406 207.082031 159.753906 215.792969 191.265625 215.792969 C 222.777344 215.792969 260.34375 207.082031 260.34375 165.585938 C 260.34375 134.394531 239.195312 92.917969 207.71875 80.886719 C 206.417969 80.390625 205.375 79.386719 204.832031 78.105469 C 204.289062 76.824219 204.289062 75.378906 204.835938 74.097656 L 212.96875 55.03125 C 212.816406 54.851562 212.585938 54.738281 212.332031 54.738281 L 170.203125 54.738281 C 169.941406 54.738281 169.707031 54.859375 169.550781 55.046875 Z M 169.550781 55.046875 " fill-opacity="1" fill-rule="nonzero"/><path fill="#66142e" d="M 341.019531 111.625 C 338.1875 108.796875 334.417969 107.238281 330.410156 107.238281 C 326.40625 107.238281 322.636719 108.796875 319.800781 111.628906 L 258.511719 172.871094 L 246.578125 161.296875 C 243.761719 158.566406 240.050781 157.066406 236.128906 157.066406 C 232.09375 157.066406 228.171875 158.722656 225.359375 161.613281 C 219.597656 167.546875 219.738281 177.058594 225.675781 182.816406 L 240.304688 197.003906 C 245.199219 201.75 251.679688 204.363281 258.546875 204.363281 C 265.566406 204.363281 272.144531 201.652344 277.074219 196.730469 L 341.023438 132.832031 C 343.855469 130 345.417969 126.238281 345.417969 122.230469 C 345.417969 118.226562 343.855469 114.460938 341.019531 111.625 Z M 341.019531 111.625 " fill-opacity="1" fill-rule="nonzero"/><path fill="#ffffff" d="M 258.546875 195.953125 C 254.074219 195.953125 249.597656 194.292969 246.167969 190.96875 L 231.539062 176.78125 C 228.929688 174.25 228.867188 170.082031 231.402344 167.472656 C 233.933594 164.863281 238.105469 164.800781 240.71875 167.335938 L 255.34375 181.519531 C 257.136719 183.257812 260.035156 183.238281 261.808594 181.472656 L 325.753906 117.574219 C 328.328125 115.003906 332.496094 115.003906 335.070312 117.574219 C 337.644531 120.144531 337.644531 124.3125 335.070312 126.882812 L 271.125 190.78125 C 267.675781 194.226562 263.113281 195.953125 258.546875 195.953125 " fill-opacity="1" fill-rule="nonzero"/><g fill="#fce6e5" fill-opacity="1"><g transform="translate(328.582015, 333.849969)"><g><path d="M 3.5625 0.171875 C 2.707031 0.171875 2.039062 -0.0507812 1.5625 -0.5 C 1.09375 -0.945312 0.859375 -1.582031 0.859375 -2.40625 C 0.859375 -2.914062 0.960938 -3.34375 1.171875 -3.6875 C 1.378906 -4.039062 1.703125 -4.328125 2.140625 -4.546875 C 2.585938 -4.773438 3.171875 -4.945312 3.890625 -5.0625 C 4.515625 -5.164062 4.988281 -5.28125 5.3125 -5.40625 C 5.632812 -5.539062 5.851562 -5.6875 5.96875 -5.84375 C 6.082031 -6.007812 6.140625 -6.21875 6.140625 -6.46875 C 6.140625 -6.851562 6.003906 -7.148438 5.734375 -7.359375 C 5.460938 -7.566406 5.03125 -7.671875 4.4375 -7.671875 C 3.882812 -7.671875 3.40625 -7.5625 3 -7.34375 C 2.601562 -7.132812 2.238281 -6.816406 1.90625 -6.390625 L 1.75 -6.390625 L 1.125 -7.265625 C 1.488281 -7.734375 1.953125 -8.101562 2.515625 -8.375 C 3.078125 -8.644531 3.71875 -8.78125 4.4375 -8.78125 C 5.457031 -8.78125 6.207031 -8.554688 6.6875 -8.109375 C 7.164062 -7.671875 7.40625 -7.054688 7.40625 -6.265625 L 7.40625 -1.703125 C 7.40625 -1.222656 7.609375 -0.984375 8.015625 -0.984375 C 8.148438 -0.984375 8.28125 -1.003906 8.40625 -1.046875 L 8.515625 -1.015625 L 8.671875 -0.140625 C 8.578125 -0.078125 8.453125 -0.03125 8.296875 0 C 8.140625 0.0390625 7.984375 0.0625 7.828125 0.0625 C 7.347656 0.0625 6.988281 -0.0390625 6.75 -0.25 C 6.507812 -0.457031 6.351562 -0.765625 6.28125 -1.171875 L 6.125 -1.1875 C 5.875 -0.738281 5.539062 -0.398438 5.125 -0.171875 C 4.707031 0.0546875 4.1875 0.171875 3.5625 0.171875 Z M 3.84375 -0.859375 C 4.320312 -0.859375 4.734375 -0.96875 5.078125 -1.1875 C 5.429688 -1.40625 5.703125 -1.710938 5.890625 -2.109375 C 6.078125 -2.515625 6.171875 -2.984375 6.171875 -3.515625 L 6.171875 -4.609375 L 6.03125 -4.640625 C 5.832031 -4.503906 5.59375 -4.390625 5.3125 -4.296875 C 5.039062 -4.203125 4.660156 -4.117188 4.171875 -4.046875 C 3.671875 -3.984375 3.269531 -3.878906 2.96875 -3.734375 C 2.675781 -3.597656 2.46875 -3.421875 2.34375 -3.203125 C 2.21875 -2.984375 2.15625 -2.71875 2.15625 -2.40625 C 2.15625 -1.894531 2.300781 -1.507812 2.59375 -1.25 C 2.894531 -0.988281 3.3125 -0.859375 3.84375 -0.859375 Z M 3.84375 -0.859375 "/></g></g></g></svg>